<svg width="116" height="19" viewBox="0 0 116 19" fill="none" xmlns="http://www.w3.org/2000/svg">
<path d="M5.65909 18H0.545455L6.30682 0.545454H12.7841L18.5455 18H13.4318L9.61364 5.35227H9.47727L5.65909 18ZM4.70455 11.1136H14.3182V14.6591H4.70455V11.1136ZM28.956 6C28.9105 5.43182 28.6974 4.98864 28.3168 4.67045C27.9418 4.35227 27.3707 4.19318 26.6037 4.19318C26.1151 4.19318 25.7145 4.25284 25.402 4.37216C25.0952 4.4858 24.8679 4.64205 24.7202 4.84091C24.5724 5.03977 24.4957 5.26705 24.4901 5.52273C24.4787 5.73295 24.5156 5.9233 24.6009 6.09375C24.6918 6.25852 24.8338 6.40909 25.027 6.54545C25.2202 6.67614 25.4673 6.79545 25.7685 6.90341C26.0696 7.01136 26.4276 7.10795 26.8423 7.19318L28.2741 7.5C29.2401 7.70455 30.0668 7.97443 30.7543 8.30966C31.4418 8.64489 32.0043 9.03977 32.4418 9.49432C32.8793 9.94318 33.2003 10.4489 33.4048 11.0114C33.6151 11.5739 33.723 12.1875 33.7287 12.8523C33.723 14 33.4361 14.9716 32.8679 15.767C32.2997 16.5625 31.4872 17.1676 30.4304 17.5824C29.3793 17.9972 28.1151 18.2045 26.6378 18.2045C25.1207 18.2045 23.7969 17.9801 22.6662 17.5312C21.5412 17.0824 20.6662 16.392 20.0412 15.4602C19.4219 14.5227 19.1094 13.3239 19.1037 11.8636H23.6037C23.6321 12.3977 23.7656 12.8466 24.0043 13.2102C24.2429 13.5739 24.5781 13.8494 25.0099 14.0369C25.4474 14.2244 25.9673 14.3182 26.5696 14.3182C27.0753 14.3182 27.4986 14.2557 27.8395 14.1307C28.1804 14.0057 28.4389 13.8324 28.6151 13.6108C28.7912 13.3892 28.8821 13.1364 28.8878 12.8523C28.8821 12.5852 28.794 12.3523 28.6236 12.1534C28.4588 11.9489 28.1861 11.767 27.8054 11.608C27.4247 11.4432 26.9105 11.2898 26.2628 11.1477L24.5241 10.7727C22.9787 10.4375 21.7599 9.87784 20.8679 9.09375C19.9815 8.30398 19.5412 7.22727 19.5469 5.86364C19.5412 4.75568 19.8366 3.78693 20.4332 2.95739C21.0355 2.12216 21.8679 1.47159 22.9304 1.00568C23.9986 0.539772 25.223 0.306818 26.6037 0.306818C28.0128 0.306818 29.2315 0.542613 30.2599 1.0142C31.2884 1.4858 32.081 2.15057 32.6378 3.00852C33.2003 3.8608 33.4844 4.85795 33.4901 6H28.956ZM35.5312 18V0.545454H43.0653C44.3608 0.545454 45.4943 0.801136 46.4659 1.3125C47.4375 1.82386 48.1932 2.54261 48.733 3.46875C49.2727 4.39489 49.5426 5.47727 49.5426 6.71591C49.5426 7.96591 49.2642 9.0483 48.7074 9.96307C48.1563 10.8778 47.3807 11.5824 46.3807 12.0767C45.3864 12.571 44.2244 12.8182 42.8949 12.8182H38.3949V9.13636H41.9403C42.4972 9.13636 42.9716 9.03977 43.3636 8.84659C43.7614 8.64773 44.0653 8.36648 44.2756 8.00284C44.4915 7.6392 44.5994 7.21023 44.5994 6.71591C44.5994 6.21591 44.4915 5.78977 44.2756 5.4375C44.0653 5.07955 43.7614 4.80682 43.3636 4.61932C42.9716 4.42614 42.4972 4.32954 41.9403 4.32954H40.2699V18H35.5312Z" fill="#DC9833" fill-opacity="0.94"/>
<path d="M57.2472 18.2727C56.1165 18.2727 55.1165 17.9858 54.2472 17.4119C53.3835 16.8381 52.7074 16.0455 52.2188 15.0341C51.7301 14.017 51.4858 12.8437 51.4858 11.5142C51.4858 10.1733 51.7301 8.99432 52.2188 7.97727C52.7074 6.95455 53.3835 6.15909 54.2472 5.59091C55.1165 5.01705 56.1165 4.73011 57.2472 4.73011C58.3778 4.73011 59.375 5.01705 60.2386 5.59091C61.1023 6.16477 61.7784 6.96023 62.267 7.97727C62.7614 8.99432 63.0085 10.1733 63.0085 11.5142C63.0085 12.8437 62.7642 14.017 62.2756 15.0341C61.7869 16.0455 61.108 16.8381 60.2386 17.4119C59.375 17.9858 58.3778 18.2727 57.2472 18.2727ZM57.2472 16.8835C58.1563 16.8835 58.9261 16.6392 59.5568 16.1506C60.1875 15.6619 60.6648 15.0114 60.9886 14.1989C61.3182 13.3864 61.483 12.4915 61.483 11.5142C61.483 10.5369 61.3182 9.6392 60.9886 8.82102C60.6648 8.00284 60.1875 7.34659 59.5568 6.85227C58.9261 6.35795 58.1563 6.1108 57.2472 6.1108C56.3438 6.1108 55.5739 6.35795 54.9375 6.85227C54.3068 7.34659 53.8267 8.00284 53.4972 8.82102C53.1733 9.6392 53.0114 10.5369 53.0114 11.5142C53.0114 12.4915 53.1733 13.3864 53.4972 14.1989C53.8267 15.0114 54.3068 15.6619 54.9375 16.1506C55.5682 16.6392 56.3381 16.8835 57.2472 16.8835ZM67.8558 9.81818V18H66.3388V4.90909H67.8132V6.96307H67.9496C68.2564 6.29261 68.7337 5.75568 69.3814 5.35227C70.0348 4.94318 70.8416 4.73864 71.8018 4.73864C72.6825 4.73864 73.4553 4.9233 74.12 5.29261C74.7905 5.65625 75.3104 6.19318 75.6797 6.90341C76.0547 7.61364 76.2422 8.4858 76.2422 9.51989V18H74.7251V9.61364C74.7251 8.53977 74.424 7.69034 73.8217 7.06534C73.2251 6.44034 72.424 6.12784 71.4183 6.12784C70.7308 6.12784 70.12 6.27557 69.5859 6.57102C69.0518 6.86648 68.6286 7.29261 68.3161 7.84943C68.0092 8.40057 67.8558 9.05682 67.8558 9.81818ZM81.7543 0.545454V18H80.2372V0.545454H81.7543ZM85.7855 18V4.90909H87.3111V18H85.7855ZM86.5611 2.65909C86.2486 2.65909 85.9815 2.55398 85.7599 2.34375C85.5384 2.12784 85.4276 1.86932 85.4276 1.56818C85.4276 1.26705 85.5384 1.01136 85.7599 0.801136C85.9815 0.585227 86.2486 0.477272 86.5611 0.477272C86.8736 0.477272 87.1406 0.585227 87.3622 0.801136C87.5838 1.01136 87.6946 1.26705 87.6946 1.56818C87.6946 1.86932 87.5838 2.12784 87.3622 2.34375C87.1406 2.55398 86.8736 2.65909 86.5611 2.65909ZM92.8402 9.81818V18H91.3232V4.90909H92.7976V6.96307H92.9339C93.2408 6.29261 93.718 5.75568 94.3658 5.35227C95.0192 4.94318 95.826 4.73864 96.7862 4.73864C97.6669 4.73864 98.4396 4.9233 99.1044 5.29261C99.7749 5.65625 100.295 6.19318 100.664 6.90341C101.039 7.61364 101.227 8.4858 101.227 9.51989V18H99.7095V9.61364C99.7095 8.53977 99.4084 7.69034 98.8061 7.06534C98.2095 6.44034 97.4084 6.12784 96.4027 6.12784C95.7152 6.12784 95.1044 6.27557 94.5703 6.57102C94.0362 6.86648 93.6129 7.29261 93.3004 7.84943C92.9936 8.40057 92.8402 9.05682 92.8402 9.81818ZM110.514 18.2727C109.293 18.2727 108.236 17.9886 107.344 17.4205C106.452 16.8466 105.761 16.054 105.273 15.0426C104.79 14.0256 104.548 12.8551 104.548 11.5312C104.548 10.2131 104.79 9.04261 105.273 8.01989C105.761 6.99148 106.435 6.1875 107.293 5.60795C108.156 5.02273 109.153 4.73011 110.284 4.73011C110.994 4.73011 111.679 4.8608 112.338 5.12216C112.997 5.37784 113.588 5.77273 114.111 6.30682C114.639 6.83523 115.057 7.50284 115.364 8.30966C115.67 9.1108 115.824 10.0597 115.824 11.1562V11.9062H105.597V10.5682H114.273C114.273 9.72727 114.102 8.97159 113.761 8.30114C113.426 7.625 112.957 7.09091 112.355 6.69886C111.759 6.30682 111.068 6.1108 110.284 6.1108C109.455 6.1108 108.724 6.33239 108.094 6.77557C107.463 7.21875 106.969 7.80398 106.611 8.53125C106.259 9.25852 106.08 10.054 106.074 10.9176V11.7188C106.074 12.7585 106.253 13.6676 106.611 14.446C106.974 15.2187 107.489 15.8182 108.153 16.2443C108.818 16.6705 109.605 16.8835 110.514 16.8835C111.134 16.8835 111.676 16.7869 112.142 16.5938C112.614 16.4006 113.009 16.142 113.327 15.8182C113.651 15.4886 113.895 15.1278 114.06 14.7358L115.5 15.2045C115.301 15.7557 114.974 16.2642 114.52 16.7301C114.071 17.196 113.509 17.571 112.832 17.8551C112.162 18.1335 111.389 18.2727 110.514 18.2727Z" fill="white"/>
</svg>
