<svg width="97" height="28" viewBox="0 0 97 28" fill="none" xmlns="http://www.w3.org/2000/svg">
<path d="M5.08807 27H0.894886L10.3168 0.818181H14.8807L24.3026 27H20.1094L12.7074 5.57386H12.5028L5.08807 27ZM5.79119 16.7472H19.3935V20.071H5.79119V16.7472ZM42.1523 7.69602C42.016 6.48579 41.4535 5.54829 40.4648 4.88352C39.4762 4.21023 38.2319 3.87358 36.7319 3.87358C35.658 3.87358 34.729 4.04403 33.945 4.38494C33.1609 4.71733 32.5515 5.17756 32.1168 5.76562C31.6907 6.34517 31.4776 7.00568 31.4776 7.74716C31.4776 8.36932 31.6225 8.90625 31.9123 9.35795C32.2106 9.80966 32.5984 10.1889 33.0756 10.4957C33.5614 10.794 34.0813 11.0455 34.6353 11.25C35.1893 11.446 35.7219 11.608 36.2333 11.7358L38.7901 12.4006C39.6254 12.6051 40.4819 12.8821 41.3597 13.2315C42.2376 13.581 43.0515 14.0412 43.8015 14.6122C44.5515 15.1832 45.1566 15.8906 45.6168 16.7344C46.0856 17.5781 46.32 18.5881 46.32 19.7642C46.32 21.2472 45.9364 22.5639 45.1694 23.7145C44.4109 24.8651 43.3072 25.7727 41.8583 26.4375C40.418 27.1023 38.6751 27.4347 36.6296 27.4347C34.6694 27.4347 32.9734 27.1236 31.5415 26.5014C30.1097 25.8793 28.989 24.9972 28.1793 23.8551C27.3697 22.7045 26.9222 21.3409 26.837 19.7642H30.8001C30.8768 20.7102 31.1836 21.4986 31.7205 22.1293C32.266 22.7514 32.9606 23.2159 33.8043 23.5227C34.6566 23.821 35.5898 23.9702 36.604 23.9702C37.7205 23.9702 38.7134 23.7955 39.5827 23.446C40.4606 23.0881 41.1509 22.5937 41.6538 21.9631C42.1566 21.3239 42.408 20.5781 42.408 19.7259C42.408 18.9503 42.1864 18.3153 41.7433 17.821C41.3086 17.3267 40.7163 16.9176 39.9663 16.5938C39.2248 16.2699 38.3853 15.9844 37.4478 15.7372L34.354 14.8935C32.2575 14.3224 30.5955 13.483 29.3683 12.375C28.1495 11.267 27.5401 9.80114 27.5401 7.97727C27.5401 6.46875 27.9492 5.15199 28.7674 4.02699C29.5856 2.90199 30.6935 2.02841 32.0913 1.40625C33.489 0.775568 35.0657 0.460226 36.8214 0.460226C38.5941 0.460226 40.158 0.771306 41.5131 1.39347C42.8768 2.01563 43.9506 2.87216 44.7347 3.96307C45.5188 5.04545 45.9279 6.28977 45.962 7.69602H42.1523ZM51.0405 27V0.818181H60.3729C62.4098 0.818181 64.0973 1.18892 65.4354 1.9304C66.7734 2.67187 67.7749 3.68608 68.4396 4.97301C69.1044 6.25142 69.4368 7.69176 69.4368 9.29403C69.4368 10.9048 69.1001 12.3537 68.4268 13.6406C67.7621 14.919 66.7564 15.9332 65.4098 16.6832C64.0717 17.4247 62.3885 17.7955 60.3601 17.7955H53.9425V14.446H60.0021C61.2891 14.446 62.3331 14.2244 63.1342 13.7812C63.9354 13.3295 64.5234 12.7159 64.8984 11.9403C65.2734 11.1648 65.4609 10.2827 65.4609 9.29403C65.4609 8.3054 65.2734 7.42756 64.8984 6.66051C64.5234 5.89346 63.9311 5.29261 63.1214 4.85795C62.3203 4.4233 61.2635 4.20597 59.951 4.20597H54.9908V27H51.0405Z" fill="#E7C517"/>
<path d="M96.8107 13.9091C96.8107 16.7045 96.2994 19.108 95.2766 21.1193C94.2539 23.1222 92.8519 24.6648 91.0707 25.7472C89.2979 26.821 87.2823 27.358 85.0238 27.358C82.7567 27.358 80.7326 26.821 78.9513 25.7472C77.1786 24.6648 75.7809 23.1179 74.7582 21.1065C73.7354 19.0952 73.2241 16.696 73.2241 13.9091C73.2241 11.1136 73.7354 8.71449 74.7582 6.71165C75.7809 4.70028 77.1786 3.15767 78.9513 2.08381C80.7326 1.00142 82.7567 0.460226 85.0238 0.460226C87.2823 0.460226 89.2979 1.00142 91.0707 2.08381C92.8519 3.15767 94.2539 4.70028 95.2766 6.71165C96.2994 8.71449 96.8107 11.1136 96.8107 13.9091ZM92.8988 13.9091C92.8988 11.7784 92.5536 9.98437 91.8633 8.52699C91.1815 7.06108 90.244 5.95313 89.0508 5.20312C87.8661 4.4446 86.5238 4.06534 85.0238 4.06534C83.5153 4.06534 82.1687 4.4446 80.984 5.20312C79.7994 5.95313 78.8619 7.06108 78.1715 8.52699C77.4897 9.98437 77.1488 11.7784 77.1488 13.9091C77.1488 16.0398 77.4897 17.8381 78.1715 19.304C78.8619 20.7614 79.7994 21.8693 80.984 22.6278C82.1687 23.3778 83.5153 23.7528 85.0238 23.7528C86.5238 23.7528 87.8661 23.3778 89.0508 22.6278C90.244 21.8693 91.1815 20.7614 91.8633 19.304C92.5536 17.8381 92.8988 16.0398 92.8988 13.9091Z" fill="#FF0000"/>
</svg>
