<svg width="130" height="37" viewBox="0 0 130 37" fill="none" xmlns="http://www.w3.org/2000/svg">
<path d="M6.92614 36H0.176136L12.4659 1.09091H20.2727L32.5795 36H25.8295L16.5057 8.25H16.233L6.92614 36ZM7.14773 22.3125H25.5568V27.392H7.14773V22.3125ZM55.5866 10.6875C55.4276 9.19886 54.7571 8.03977 53.5753 7.21023C52.4048 6.38068 50.8821 5.96591 49.0071 5.96591C47.6889 5.96591 46.5582 6.16477 45.6151 6.5625C44.6719 6.96023 43.9503 7.5 43.4503 8.18182C42.9503 8.86364 42.6946 9.64205 42.6832 10.517C42.6832 11.2443 42.848 11.875 43.1776 12.4091C43.5185 12.9432 43.9787 13.3977 44.5582 13.7727C45.1378 14.1364 45.7798 14.4432 46.4844 14.6932C47.1889 14.9432 47.8991 15.1534 48.6151 15.3239L51.8878 16.142C53.206 16.4489 54.473 16.8636 55.6889 17.3864C56.9162 17.9091 58.0128 18.5682 58.9787 19.3636C59.956 20.1591 60.7287 21.1193 61.2969 22.2443C61.8651 23.3693 62.1491 24.6875 62.1491 26.1989C62.1491 28.2443 61.6264 30.0455 60.581 31.6023C59.5355 33.1477 58.0241 34.358 56.0469 35.233C54.081 36.0966 51.7003 36.5284 48.9048 36.5284C46.1889 36.5284 43.831 36.108 41.831 35.267C39.8423 34.4261 38.2855 33.1989 37.1605 31.5852C36.0469 29.9716 35.4446 28.0057 35.3537 25.6875H41.5753C41.6662 26.9034 42.0412 27.9148 42.7003 28.7216C43.3594 29.5284 44.2173 30.1307 45.2741 30.5284C46.3423 30.9261 47.5355 31.125 48.8537 31.125C50.2287 31.125 51.4332 30.9205 52.4673 30.5114C53.5128 30.0909 54.331 29.5114 54.9219 28.7727C55.5128 28.0227 55.8139 27.1477 55.8253 26.1477C55.8139 25.2386 55.5469 24.4886 55.0241 23.8977C54.5014 23.2955 53.7685 22.7955 52.8253 22.3977C51.8935 21.9886 50.8026 21.625 49.5526 21.3068L45.581 20.2841C42.706 19.5455 40.4332 18.4261 38.7628 16.9261C37.1037 15.4148 36.2741 13.4091 36.2741 10.9091C36.2741 8.85227 36.831 7.05114 37.9446 5.50568C39.0696 3.96023 40.598 2.76136 42.5298 1.90909C44.4616 1.04545 46.6491 0.613635 49.0923 0.613635C51.5696 0.613635 53.7401 1.04545 55.6037 1.90909C57.4787 2.76136 58.9503 3.94886 60.0185 5.47159C61.0866 6.98295 61.6378 8.72159 61.6719 10.6875H55.5866Z" fill="black"/>
<path d="M67.7869 36V1.09091H80.8778C83.5597 1.09091 85.8097 1.59091 87.6278 2.59091C89.4574 3.59091 90.8381 4.96591 91.7699 6.71591C92.7131 8.45454 93.1847 10.4318 93.1847 12.6477C93.1847 14.8864 92.7131 16.875 91.7699 18.6136C90.8267 20.3523 89.4347 21.7216 87.5938 22.7216C85.7528 23.7102 83.4858 24.2045 80.7926 24.2045H72.1165V19.0057H79.9403C81.5085 19.0057 82.7926 18.733 83.7926 18.1875C84.7926 17.642 85.5313 16.892 86.0085 15.9375C86.4972 14.983 86.7415 13.8864 86.7415 12.6477C86.7415 11.4091 86.4972 10.3182 86.0085 9.375C85.5313 8.43182 84.7869 7.69886 83.7756 7.17614C82.7756 6.64205 81.4858 6.375 79.9062 6.375H74.1108V36H67.7869ZM129.871 18.5455C129.871 22.3068 129.166 25.5284 127.757 28.2102C126.359 30.8807 124.45 32.9261 122.03 34.3466C119.621 35.767 116.888 36.4773 113.831 36.4773C110.774 36.4773 108.036 35.767 105.615 34.3466C103.206 32.9148 101.297 30.8636 99.8878 28.1932C98.4901 25.5114 97.7912 22.2955 97.7912 18.5455C97.7912 14.7841 98.4901 11.5682 99.8878 8.89773C101.297 6.21591 103.206 4.16477 105.615 2.74432C108.036 1.32386 110.774 0.613635 113.831 0.613635C116.888 0.613635 119.621 1.32386 122.03 2.74432C124.45 4.16477 126.359 6.21591 127.757 8.89773C129.166 11.5682 129.871 14.7841 129.871 18.5455ZM123.513 18.5455C123.513 15.8977 123.098 13.6648 122.268 11.8466C121.45 10.017 120.314 8.63636 118.859 7.70455C117.405 6.76136 115.729 6.28977 113.831 6.28977C111.933 6.28977 110.257 6.76136 108.803 7.70455C107.348 8.63636 106.206 10.017 105.376 11.8466C104.558 13.6648 104.149 15.8977 104.149 18.5455C104.149 21.1932 104.558 23.4318 105.376 25.2614C106.206 27.0795 107.348 28.4602 108.803 29.4034C110.257 30.3352 111.933 30.8011 113.831 30.8011C115.729 30.8011 117.405 30.3352 118.859 29.4034C120.314 28.4602 121.45 27.0795 122.268 25.2614C123.098 23.4318 123.513 21.1932 123.513 18.5455Z" fill="#248B84"/>
</svg>
